<svg width="216" height="35" viewBox="0 0 216 35" fill="none" xmlns="http://www.w3.org/2000/svg">
<path d="M10.9333 11.3514L7.3501 15.0406L13.7814 21.6622L17.3646 25.3514L20.9477 21.6622L37.4854 4.6352L33.9022 0.946014L17.3646 17.973L10.9333 11.3514Z" fill="#FF8A01"/>
<path d="M30.0434 14.9459C30.2271 15.7973 30.319 16.5541 30.319 17.5C30.319 25.0676 24.3471 31.2162 16.997 31.2162C9.64696 31.2162 3.67503 25.0676 3.67503 17.5C3.67503 9.93243 9.64696 3.78378 16.997 3.78378C20.2127 3.78378 23.1527 5.01351 25.5415 6.90541L28.114 4.25676C25.0821 1.60811 21.2233 0 16.997 0C7.62569 0 0 7.85135 0 17.5C0 27.1486 7.62569 35 16.997 35C26.3684 35 33.994 27.1486 33.994 17.5C33.994 15.5135 33.6265 13.6216 33.0753 11.9189L30.0434 14.9459Z" fill="#2B2B2B"/>
<path d="M62.2918 1.7973H61.3731H45.9379H45.0192V2.74325V5.95946V6.90541H45.9379H61.2812H62.1999V5.95946V2.74325V1.7973H62.2918ZM76.6244 5.67568H75.7057H72.3982H71.4794V6.62162V9.55406C71.4794 21.0946 68.7231 28.7568 55.4011 28.7568H45.2029H44.2842V29.7027V33.1081V34.054H45.2029H55.1255C73.96 34.054 76.5326 21.8514 76.5326 10.027V6.62162V5.67568H76.6244ZM62.2918 12.8649H61.3731H45.9379H45.0192V13.8108V17.027V17.973H45.9379H61.2812H62.1999V17.027V13.8108V12.8649H62.2918Z" fill="#2B2B2B"/>
<path d="M104.371 7.47293H103.452H82.9639H82.0451V8.41888V11.3513V12.2973H82.9639H99.6853V28.5675H80.8508H79.932V29.5135V32.4459V33.3918H80.8508H106.576H107.495V32.4459V29.5135V28.5675H106.576H104.279V8.41888V7.47293H104.371Z" fill="#2B2B2B"/>
<path d="M129.177 0.756653H128.259H124.951H124.032V1.7026V3.97287H111.537H110.618V4.91881V19.8648V20.8107H111.537H114.845H115.763V19.8648V9.08098H137.538V15.4188C137.538 24.7837 132.577 28.8512 121 28.8512H115.947H115.028V29.7972V33.108V34.054H115.947H121C135.609 34.054 142.775 27.9999 142.775 15.5134V4.82422V3.87827H141.856H129.177V1.7026V0.756653V0.756653Z" fill="#2B2B2B"/>
<path d="M160.966 0.472931H160.048H156.74H155.821V1.41888V4.06753H147.92H147.001V5.01347V8.41888V9.36482H147.92H155.821C155.546 19.2027 152.881 25.2567 147.461 28.2837L147.001 28.5675V29.1351V33.0135V34.527L148.288 33.8648C156.556 29.7027 160.599 21.9459 160.875 9.36482H173.921V23.554C173.921 27.527 173.002 28.5675 169.511 28.5675H164.642H163.723V29.5135V32.8243V33.7702H164.642H169.511C176.402 33.7702 179.066 30.9324 179.066 23.554V5.01347V4.06753H178.147H160.875V1.41888V0.472931H160.966Z" fill="#2B2B2B"/>
<path d="M185.314 1.7973H184.395V2.74325V6.14865V7.0946H185.314C189.999 7.0946 196.522 8.7973 200.932 11.1622L202.311 11.9189V10.4054V6.62163V6.05406L201.851 5.77027C198.268 3.68919 190.55 1.7973 185.314 1.7973ZM216 2.64865H215.081H211.774H210.855V3.5946V10.973C210.855 14.6622 210.579 19.3919 208.191 22.9865C205.618 26.9595 200.932 28.8514 193.95 28.8514H184.762H183.844V29.7973V33.2027V34.1486H184.762H194.134C203.046 34.1486 209.293 31.3108 212.693 25.8243C215.541 21.2838 215.908 15.7027 215.908 10.8784V3.5946V2.64865H216Z" fill="#2B2B2B"/>
</svg>
