<svg width="18" height="19" viewBox="0 0 18 19" fill="none" xmlns="http://www.w3.org/2000/svg">
<path d="M17.7701 11.7831L16.1552 10.8407C16.3182 9.95201 16.3182 9.04032 16.1552 8.15162L17.7701 7.20928C17.9558 7.10203 18.0392 6.87985 17.9786 6.67299C17.5578 5.30929 16.8413 4.07583 15.905 3.04922C15.7609 2.89216 15.5259 2.85386 15.3439 2.96111L13.729 3.90345C13.0504 3.31353 12.2695 2.85769 11.4241 2.5589V0.678057C11.4241 0.463542 11.2763 0.275841 11.0678 0.229874C9.67651 -0.084238 8.25113 -0.0689155 6.92811 0.229874C6.71961 0.275841 6.57176 0.463542 6.57176 0.678057V2.56273C5.73018 2.86535 4.94926 3.32119 4.26689 3.90728L2.65576 2.96494C2.47001 2.85769 2.23876 2.89216 2.09471 3.05305C1.15835 4.07583 0.441872 5.30929 0.0210819 6.67683C-0.0433634 6.88368 0.0438274 7.10586 0.229582 7.21311L1.84451 8.15545C1.6815 9.04416 1.6815 9.95585 1.84451 10.8446L0.229582 11.7869C0.0438274 11.8941 -0.0395725 12.1163 0.0210819 12.3232C0.441872 13.6869 1.15835 14.9203 2.09471 15.947C2.23876 16.104 2.4738 16.1423 2.65576 16.0351L4.27068 15.0927C4.94926 15.6826 5.73018 16.1385 6.57555 16.4373V18.3219C6.57555 18.5365 6.7234 18.7242 6.9319 18.7701C8.32316 19.0842 9.74854 19.0689 11.0716 18.7701C11.2801 18.7242 11.4279 18.5365 11.4279 18.3219V16.4373C12.2695 16.1347 13.0504 15.6788 13.7328 15.0927L15.3477 16.0351C15.5335 16.1423 15.7647 16.1078 15.9088 15.947C16.8451 14.9242 17.5616 13.6907 17.9824 12.3232C18.0392 12.1125 17.9558 11.8903 17.7701 11.7831ZM8.99794 12.5607C7.32615 12.5607 5.96522 11.1855 5.96522 9.49617C5.96522 7.80686 7.32615 6.43166 8.99794 6.43166C10.6697 6.43166 12.0307 7.80686 12.0307 9.49617C12.0307 11.1855 10.6697 12.5607 8.99794 12.5607Z" fill="black"/>
</svg>
