<svg width="15" height="15" viewBox="0 0 15 15" fill="none" xmlns="http://www.w3.org/2000/svg">
<path d="M13.4581 4.44481C13.4676 4.57806 13.4676 4.71133 13.4676 4.84457C13.4676 8.90863 10.3744 13.5914 4.72081 13.5914C2.97905 13.5914 1.36104 13.0869 0 12.2113C0.247471 12.2399 0.485391 12.2494 0.742383 12.2494C2.17954 12.2494 3.50253 11.764 4.559 10.9359C3.20748 10.9074 2.07486 10.0222 1.68463 8.80395C1.875 8.83249 2.06534 8.85153 2.26523 8.85153C2.54124 8.85153 2.81728 8.81345 3.07424 8.74685C1.66562 8.4613 0.609111 7.224 0.609111 5.72972V5.69166C1.01836 5.92009 1.49429 6.06285 1.99869 6.08186C1.17064 5.52982 0.628154 4.58758 0.628154 3.52158C0.628154 2.95053 0.78041 2.42705 1.04692 1.97019C2.56025 3.83567 4.83501 5.05392 7.38574 5.1872C7.33816 4.95877 7.3096 4.72085 7.3096 4.4829C7.3096 2.78872 8.68017 1.40866 10.3838 1.40866C11.269 1.40866 12.0685 1.77985 12.63 2.37947C13.3248 2.24623 13.991 1.98924 14.5812 1.63709C14.3527 2.35094 13.8673 2.95056 13.2296 3.33124C13.8483 3.26465 14.4479 3.09329 14.9999 2.85537C14.5812 3.46448 14.0577 4.00697 13.4581 4.44481Z" fill="white"/>
</svg>
