<svg width="21" height="19" viewBox="0 0 21 19" fill="none" xmlns="http://www.w3.org/2000/svg">
<path d="M6.125 6.16217L4.11765 8.16487L7.72059 11.7595L9.72794 13.7622L11.7353 11.7595L21 2.51622L18.9926 0.513519L9.72794 9.75676L6.125 6.16217Z" fill="#FF8A01"/>
<path d="M16.8309 8.11351C16.9338 8.57568 16.9853 8.98649 16.9853 9.5C16.9853 13.6081 13.6397 16.9459 9.52206 16.9459C5.40441 16.9459 2.05882 13.6081 2.05882 9.5C2.05882 5.39189 5.40441 2.05405 9.52206 2.05405C11.3235 2.05405 12.9706 2.72162 14.3088 3.74865L15.75 2.31081C14.0515 0.872973 11.8897 0 9.52206 0C4.27206 0 0 4.26216 0 9.5C0 14.7378 4.27206 19 9.52206 19C14.7721 19 19.0441 14.7378 19.0441 9.5C19.0441 8.42162 18.8382 7.39459 18.5294 6.47027L16.8309 8.11351Z" fill="black"/>
</svg>
