<svg width="288" height="48" viewBox="0 0 288 48" fill="none" xmlns="http://www.w3.org/2000/svg">
<rect width="288" height="48" rx="8" fill="#1DA1F2"/>
<path d="M81.7938 32H84.4578V20.894H88.2378V18.662H78.0498V20.894H81.7938V32ZM91.3108 32H94.3348L95.3608 27.608C95.5768 26.672 95.7208 25.736 95.9188 24.674H96.0088C96.2068 25.736 96.3688 26.654 96.5848 27.608L97.6468 32H100.761L103.245 21.92H100.797L99.6988 26.888C99.5188 27.878 99.3748 28.832 99.1948 29.84H99.1048C98.8888 28.832 98.7088 27.878 98.4748 26.888L97.2148 21.92H94.8748L93.6508 26.888C93.3988 27.86 93.2188 28.832 93.0208 29.84H92.9488C92.7688 28.832 92.6428 27.878 92.4448 26.888L91.3468 21.92H88.7008L91.3108 32ZM105.176 32H107.822V21.92H105.176V32ZM106.508 20.3C107.408 20.3 108.038 19.724 108.038 18.842C108.038 17.978 107.408 17.402 106.508 17.402C105.59 17.402 104.96 17.978 104.96 18.842C104.96 19.724 105.59 20.3 106.508 20.3ZM114.333 32.252C115.215 32.252 115.917 32.054 116.457 31.874L116.025 29.948C115.755 30.056 115.359 30.164 115.035 30.164C114.135 30.164 113.667 29.624 113.667 28.472V24.008H116.151V21.92H113.667V19.202H111.471L111.165 21.92L109.599 22.046V24.008H111.021V28.472C111.021 30.722 111.939 32.252 114.333 32.252ZM121.469 32.252C122.351 32.252 123.053 32.054 123.593 31.874L123.161 29.948C122.891 30.056 122.495 30.164 122.171 30.164C121.271 30.164 120.803 29.624 120.803 28.472V24.008H123.287V21.92H120.803V19.202H118.607L118.301 21.92L116.735 22.046V24.008H118.157V28.472C118.157 30.722 119.075 32.252 121.469 32.252ZM129.396 32.252C130.638 32.252 131.916 31.82 132.906 31.136L132.006 29.516C131.286 29.966 130.566 30.218 129.738 30.218C128.244 30.218 127.164 29.354 126.948 27.698H133.158C133.23 27.464 133.284 26.978 133.284 26.474C133.284 23.702 131.844 21.668 129.072 21.668C126.678 21.668 124.374 23.702 124.374 26.96C124.374 30.29 126.57 32.252 129.396 32.252ZM126.912 25.934C127.11 24.476 128.046 23.72 129.108 23.72C130.404 23.72 131.016 24.584 131.016 25.934H126.912ZM135.463 32H138.109V25.988C138.667 24.53 139.621 24.008 140.413 24.008C140.827 24.008 141.115 24.062 141.475 24.17L141.925 21.884C141.619 21.758 141.295 21.668 140.737 21.668C139.693 21.668 138.613 22.388 137.875 23.702H137.821L137.623 21.92H135.463V32ZM143.123 19.652L143.357 22.118C145.445 21.668 149.117 21.272 150.809 21.092C149.585 22.01 148.127 24.062 148.127 26.654C148.127 30.56 151.691 32.576 155.471 32.828L156.317 30.362C153.257 30.2 150.485 29.138 150.485 26.168C150.485 24.026 152.123 21.704 154.301 21.128C155.255 20.894 156.803 20.894 157.775 20.876L157.757 18.572C156.479 18.626 154.517 18.734 152.663 18.896C149.369 19.166 146.399 19.436 144.887 19.562C144.545 19.598 143.843 19.634 143.123 19.652ZM155.201 22.64L153.869 23.198C154.445 24.008 154.823 24.71 155.273 25.7L156.641 25.088C156.299 24.386 155.651 23.288 155.201 22.64ZM157.217 21.812L155.903 22.424C156.479 23.216 156.893 23.882 157.379 24.854L158.729 24.206C158.351 23.504 157.667 22.442 157.217 21.812ZM162.149 19.238C162.185 19.742 162.185 20.48 162.185 20.984V29.786C162.185 30.65 162.131 32.216 162.131 32.306H164.615C164.615 32.252 164.615 31.838 164.597 31.334H173.273C173.273 31.856 173.255 32.27 173.255 32.306H175.739C175.739 32.234 175.703 30.506 175.703 29.804V20.984C175.703 20.444 175.703 19.778 175.739 19.238C175.091 19.274 174.407 19.274 173.957 19.274H164.057C163.571 19.274 162.887 19.256 162.149 19.238ZM164.597 21.56H173.291V29.03H164.597V21.56ZM191.903 17.258L190.481 17.834C190.931 18.482 191.435 19.436 191.795 20.156L191.669 20.084C191.273 20.21 190.661 20.3 190.103 20.3H186.503C186.521 20.264 186.539 20.246 186.557 20.21C186.755 19.814 187.223 19.004 187.655 18.374L185.009 17.51C184.847 18.122 184.469 18.95 184.199 19.382C183.317 20.93 181.733 23.27 178.583 25.178L180.599 26.69C182.381 25.484 183.947 23.9 185.153 22.334H190.211C189.923 23.666 188.879 25.844 187.655 27.23C186.071 29.03 184.073 30.596 180.401 31.694L182.525 33.602C185.909 32.252 188.069 30.614 189.779 28.508C191.417 26.51 192.443 24.116 192.929 22.514C193.073 22.064 193.325 21.56 193.523 21.218L191.993 20.282L193.325 19.724C193.001 19.058 192.353 17.906 191.903 17.258ZM194.027 16.448L192.605 17.024C193.109 17.708 193.685 18.752 194.063 19.508L195.485 18.896C195.161 18.266 194.495 17.114 194.027 16.448ZM196.997 24.998L198.131 27.266C200.345 26.618 202.631 25.646 204.485 24.674V30.434C204.485 31.226 204.431 32.36 204.359 32.792H207.203C207.077 32.342 207.041 31.226 207.041 30.434V23.162C208.787 22.01 210.515 20.606 211.883 19.256L209.939 17.402C208.769 18.824 206.717 20.624 204.863 21.776C202.865 23 200.219 24.17 196.997 24.998ZM218.219 18.32L216.527 20.12C217.841 21.038 220.091 23 221.027 24.008L222.863 22.136C221.819 21.038 219.479 19.166 218.219 18.32ZM215.969 30.308L217.481 32.684C220.019 32.252 222.341 31.244 224.159 30.146C227.057 28.4 229.451 25.916 230.819 23.486L229.415 20.948C228.281 23.378 225.941 26.132 222.863 27.95C221.117 28.994 218.777 29.912 215.969 30.308Z" fill="white"/>
<path d="M71.4581 22.4448C71.4676 22.5781 71.4676 22.7114 71.4676 22.8446C71.4676 26.9087 68.3744 31.5914 62.7208 31.5914C60.9791 31.5914 59.361 31.087 58 30.2114C58.2475 30.2399 58.4854 30.2494 58.7424 30.2494C60.1795 30.2494 61.5025 29.764 62.559 28.936C61.2075 28.9074 60.0749 28.0223 59.6846 26.804C59.875 26.8325 60.0653 26.8516 60.2652 26.8516C60.5412 26.8516 60.8173 26.8135 61.0742 26.7469C59.6656 26.4613 58.6091 25.224 58.6091 23.7297V23.6917C59.0184 23.9201 59.4943 24.0629 59.9987 24.0819C59.1706 23.5299 58.6282 22.5876 58.6282 21.5216C58.6282 20.9506 58.7804 20.4271 59.0469 19.9702C60.5603 21.8357 62.835 23.054 65.3857 23.1872C65.3382 22.9588 65.3096 22.7209 65.3096 22.4829C65.3096 20.7888 66.6802 19.4087 68.3838 19.4087C69.269 19.4087 70.0685 19.7799 70.63 20.3795C71.3248 20.2463 71.991 19.9893 72.5812 19.6371C72.3527 20.351 71.8673 20.9506 71.2296 21.3313C71.8483 21.2647 72.4479 21.0933 72.9999 20.8554C72.5812 21.4645 72.0577 22.007 71.4581 22.4448Z" fill="white"/>
</svg>
